pedal_clip_forces.mot
version=1
nRows=80
nColumns=4
inDegrees=yes
endheader
time	PedalClip_calcn_r_Fx	PedalClip_calcn_r_Fy	PedalClip_calcn_r_Fz
0.33690614	14.3858930059398	-301.617973134612	-0
0.34195299	12.5813301226279	-301.100211229501	-0
0.34358077	10.8942108542357	-300.396295496537	-0
0.34657497	9.29161526163625	-299.49024968104	-0
0.34844346	7.73612660057952	-298.477498662024	-0
0.34989424	6.22079097011295	-297.69146941458	-0
0.35187374	4.75305924246319	-297.945168882231	-0
0.35385324	3.33638433152742	-299.653994483039	-0
0.35578245	1.97479796921452	-297.974459738556	-0
0.35680609	0.66651119537502	-294.875548954903	-0
0.35805773	-0.587783747261218	-291.835023296905	-0
0.35933272	-1.7851833156655	-288.853935043977	-0
0.36060771	-2.93085539133091	-285.935498227593	-0
0.36172644	-4.0348927498835	-283.082665221499	-0
0.36284517	-5.09604747115524	-280.297711980291	-0
0.36400405	-6.11375937479042	-277.581804817645	-0
0.36516294	-7.09089350953462	-274.934675099858	-0
0.36616128	-8.03382972146406	-272.353643814365	-0
0.36715962	-8.94958627616489	-269.834885151129	-0
0.36828554	-9.83991592515175	-267.375997916533	-0
0.36941147	-10.7076244488294	-264.975114354989	-0
0.37028553	-11.5577997658233	-262.631425848836	-0
0.37115959	-12.3994842851078	-260.343975447404	-0
0.37269148	-13.2272565430456	-258.113208105628	-0
0.37422337	-13.9713004258968	-255.939249262323	-0
0.37494872	-14.5991390030461	-253.82114231805	-0
0.37567406	-15.1933475827487	-251.758865351481	-0
0.37676459	-15.7715468339855	-249.751833098179	-0
0.37766021	-16.3339909435916	-247.800557433352	-0
0.37855584	-16.8811945910959	-245.904509956541	-0
0.3795211	-17.413302972905	-244.064847898471	-0
0.38048636	-17.93054073237	-242.28173143062	-0
0.38120816	-18.4335716771918	-240.551888148415	-0
0.38192995	-18.9232635518748	-238.869750832232	-0
0.38319143	-19.4003950376444	-237.233354252923	-0
0.38445291	-19.8655401302696	-235.641585360808	-0
0.38512577	-20.3191217385892	-234.093130924231	-0
0.38579864	-20.761430577077	-232.586438365419	-0
0.38661164	-21.1928851164005	-231.119927066977	-0
0.38742463	-21.6137063347074	-229.692759664741	-0
0.38819148	-22.0242562580387	-228.304269547843	-0
0.38898643	-22.4251879485139	-226.951201270199	-0
0.38978139	-22.8169039168544	-225.632467568133	-0
0.39060206	-23.199916442041	-224.345983961069	-0
0.39142274	-23.5749556694406	-223.091099304608	-0
0.39206114	-23.9427109544552	-221.866215295381	-0
0.39269954	-24.3035934116877	-220.671416337255	-0
0.39357739	-24.6581513261362	-219.505377731867	-0
0.39432067	-25.0067246971856	-218.365946715205	-0
0.39506395	-25.3503074028259	-217.249188252209	-0
0.39595268	-25.6896492084578	-216.153225703271	-0
0.39684142	-26.0255627729372	-215.075427340237	-0
0.39743399	-26.3581804727136	-214.015052463926	-0
0.39802657	-26.6874343517042	-212.971650152077	-0
0.39875877	-27.0136498026532	-211.943022985656	-0
0.39949098	-27.3368226080877	-210.928448793322	-0
0.40010322	-27.6570917652667	-209.926943290447	-0
0.40071547	-27.9743928048085	-208.938563840185	-0
0.40164381	-28.2888745563034	-207.962440302723	-0
0.40257216	-28.6004881196952	-206.998613574485	-0
0.40323685	-28.9090303299511	-206.048136432746	-0
0.40383529	-29.2145519169153	-205.111129529499	-0
0.40443372	-29.517322778686	-204.186546003886	-0
0.40527819	-29.8173353260526	-203.27400105041	-0
0.40600135	-30.1144112438857	-202.373743475525	-0
0.40672451	-30.4085310252554	-201.485096730955	-0
0.40736303	-30.6996781563583	-200.607772664437	-0
0.40800155	-30.9880280474451	-199.741283369888	-0
0.40860742	-31.2738995293989	-198.884868935608	-0
0.40921329	-31.5577832435237	-198.037485752258	-0
0.41007552	-31.8400256404996	-197.198764705281	-0
0.41093774	-32.1209341054704	-196.368545231747	-0
0.4115037	-32.4004862938949	-195.54740542122	-0
0.41206966	-32.6784589155941	-194.736311512607	-0
0.41276481	-32.9548512467442	-193.935762375358	-0
0.41345997	-33.2296659642571	-193.146478169414	-0
0.41415512	-33.502978368779	-192.36940368356	-0
0.41485028	-33.7748225824105	-191.605290559834	-0
0.41554543	-34.0451743990603	-190.85490854012	-0
0.41624059	-34.3138988212773	-190.118500857026	-0
